<svg xmlns="http://www.w3.org/2000/svg" viewBox="0 0 96 96" role="img" aria-label="Fish Market logo">
  <defs>
    <linearGradient id="fm-bg" x1="12" y1="10" x2="84" y2="86" gradientUnits="userSpaceOnUse">
      <stop offset="0" stop-color="#2dd4bf"/>
      <stop offset="1" stop-color="#0d9488"/>
    </linearGradient>
    <linearGradient id="fm-fish" x1="25" y1="48" x2="72" y2="48" gradientUnits="userSpaceOnUse">
      <stop offset="0" stop-color="#60a5fa"/>
      <stop offset="1" stop-color="#22d3ee"/>
    </linearGradient>
  </defs>
  <rect x="8" y="8" width="80" height="80" rx="20" fill="url(#fm-bg)"/>
  <path d="M27 59h42l-4 15H31l-4-15Z" fill="#082033" opacity=".94"/>
  <path d="M32 59 28 40h8l3 19M64 59l3-19h8l-4 19" fill="none" stroke="#fbbf24" stroke-width="5" stroke-linecap="round" stroke-linejoin="round"/>
  <path d="M28 48c9-12 26-15 38-3l9-6v18l-9-6c-12 12-29 9-38-3Z" fill="url(#fm-fish)"/>
  <circle cx="39" cy="47" r="3" fill="#0f1a2e"/>
  <path d="M53 39c4 5 4 13 0 18" fill="none" stroke="#e0f2fe" stroke-width="3" stroke-linecap="round" opacity=".8"/>
  <path d="M25 76c7-4 13-4 20 0s13 4 20 0" fill="none" stroke="#5eead4" stroke-width="4" stroke-linecap="round" opacity=".9"/>
</svg>
